<?xml version="1.0" standalone="no"?>
<!DOCTYPE svg PUBLIC "-//W3C//DTD SVG 20010904//EN"
 "http://www.w3.org/TR/2001/REC-SVG-20010904/DTD/svg10.dtd">
<svg version="1.0" xmlns="http://www.w3.org/2000/svg"
 width="16.000000pt" height="16.000000pt" viewBox="0 0 16.000000 16.000000"
 preserveAspectRatio="xMidYMid meet">
<metadata>
Created by potrace 1.11, written by Peter Selinger 2001-2013
</metadata>
<g transform="translate(0.000000,16.000000) scale(0.002410,-0.002410)"
fill="#000000" stroke="none">
<path d="M2910 6632 c0 -4 -20 -7 -45 -7 -25 0 -45 -2 -45 -5 0 -3 -15 -6 -32
-7 -18 -1 -55 -7 -83 -13 -27 -6 -61 -12 -75 -13 -14 -2 -30 -5 -35 -9 -6 -3
-18 -4 -27 -3 -10 2 -18 -1 -18 -7 0 -6 -6 -8 -14 -5 -8 3 -17 3 -20 -1 -4 -3
-12 -7 -19 -8 -39 -7 -65 -13 -89 -23 -16 -6 -28 -9 -28 -6 0 2 -15 -2 -34
-10 -18 -8 -36 -11 -40 -8 -3 4 -6 0 -6 -7 0 -7 -3 -11 -6 -7 -4 3 -28 -2 -55
-12 -26 -10 -50 -16 -53 -13 -4 3 -6 0 -6 -7 0 -7 -4 -9 -10 -6 -5 3 -10 1
-10 -5 0 -6 -4 -9 -9 -5 -5 3 -29 -3 -53 -14 -97 -44 -138 -61 -146 -61 -4 0
-14 -6 -20 -12 -7 -7 -18 -13 -25 -13 -16 -1 -111 -48 -115 -57 -2 -5 -8 -8
-14 -8 -11 0 -117 -58 -193 -105 -22 -14 -47 -28 -55 -32 -8 -3 -17 -9 -20
-12 -11 -13 -101 -71 -109 -71 -5 0 -11 -4 -13 -8 -1 -5 -30 -28 -63 -52 -119
-86 -233 -186 -375 -330 -147 -148 -200 -207 -200 -223 0 -4 -4 -5 -10 -2 -5
3 -10 0 -10 -7 0 -7 -12 -26 -28 -43 -34 -37 -112 -142 -112 -150 0 -4 -6 -13
-12 -20 -27 -30 -38 -44 -38 -50 0 -3 -9 -18 -19 -33 -35 -49 -95 -147 -96
-154 0 -4 -7 -16 -15 -26 -8 -10 -16 -25 -18 -33 -2 -8 -9 -21 -16 -29 -15
-19 -40 -73 -38 -82 1 -5 -2 -8 -8 -8 -6 0 -9 -3 -8 -7 0 -5 -17 -46 -39 -93
-38 -82 -55 -120 -57 -130 -5 -20 -41 -107 -49 -117 -5 -7 -6 -13 -2 -13 4 0
2 -7 -5 -15 -7 -8 -10 -15 -7 -15 4 0 -2 -20 -13 -45 -11 -25 -20 -47 -20 -50
0 -3 -1 -7 -1 -10 -1 -3 -3 -9 -4 -15 -1 -5 -4 -12 -5 -15 -1 -3 -3 -13 -5
-22 -1 -10 -4 -25 -8 -33 -3 -8 -9 -28 -13 -45 -4 -16 -8 -34 -10 -40 -2 -5
-5 -21 -8 -35 -9 -38 -15 -68 -21 -92 -3 -13 -8 -35 -10 -50 -2 -16 -8 -43
-12 -60 -5 -18 -8 -45 -8 -60 1 -16 -2 -28 -5 -28 -10 0 -12 -63 -15 -472 -3
-285 -1 -408 7 -408 7 0 6 -5 -2 -15 -9 -11 -9 -15 -1 -15 7 0 11 -6 10 -12
-1 -7 1 -44 6 -83 5 -38 8 -73 7 -77 -1 -5 2 -8 6 -8 5 0 9 -13 10 -28 0 -16
7 -55 16 -88 8 -32 17 -70 20 -84 11 -56 15 -71 23 -83 4 -6 8 -21 8 -32 1
-11 5 -28 8 -37 8 -20 18 -52 18 -55 0 -9 37 -104 42 -110 4 -3 7 -17 7 -30 0
-12 5 -23 11 -23 5 0 8 -4 5 -8 -3 -5 2 -22 10 -38 9 -16 15 -30 15 -32 -1 -1
5 -15 13 -31 9 -16 12 -31 9 -35 -4 -3 -1 -6 5 -6 7 0 12 -7 12 -16 0 -9 8
-33 19 -53 10 -20 29 -58 42 -86 13 -27 27 -51 32 -53 4 -2 7 -8 7 -14 0 -15
109 -205 126 -219 8 -6 14 -16 14 -21 0 -5 18 -35 40 -67 22 -31 40 -63 40
-70 0 -6 5 -9 10 -6 6 3 10 -1 10 -9 0 -9 4 -16 8 -16 4 0 15 -12 24 -28 9
-15 25 -37 35 -49 10 -12 26 -32 37 -45 159 -197 347 -385 506 -508 18 -14 40
-33 49 -42 8 -10 21 -18 28 -18 7 0 13 -3 13 -8 0 -4 18 -18 40 -32 22 -14 40
-28 40 -33 0 -4 4 -6 9 -3 5 3 11 -1 15 -9 3 -8 10 -15 16 -15 6 0 18 -6 25
-12 33 -30 45 -38 54 -38 5 0 16 -6 23 -12 7 -7 27 -20 43 -28 17 -8 37 -20
45 -26 22 -17 122 -74 142 -81 10 -3 18 -10 18 -15 0 -5 4 -7 9 -3 5 3 17 -2
25 -11 9 -8 16 -13 16 -10 0 4 19 -4 42 -16 24 -12 46 -21 51 -20 4 1 7 -3 7
-9 0 -5 5 -7 10 -4 6 3 10 1 10 -4 0 -6 3 -10 8 -9 4 1 25 -6 47 -16 22 -10
47 -19 56 -21 9 -2 25 -8 35 -13 38 -19 70 -33 84 -36 8 -2 23 -6 32 -10 9 -4
22 -9 30 -10 7 -2 20 -6 28 -9 8 -3 40 -13 70 -22 30 -10 62 -19 70 -22 8 -4
20 -7 25 -8 6 -1 12 -3 15 -4 3 -2 14 -4 25 -6 11 -2 27 -5 35 -8 16 -4 71
-16 105 -22 11 -2 20 -4 20 -5 0 -2 35 -9 75 -14 19 -3 35 -5 35 -6 0 -1 12
-4 28 -6 15 -2 39 -6 55 -8 15 -2 27 -5 27 -6 0 -2 76 -9 147 -13 26 -2 50 -6
54 -9 3 -4 17 -3 30 2 13 5 24 6 24 2 0 -5 23 -8 50 -8 28 1 50 -3 50 -8 0 -6
4 -6 10 0 6 6 31 8 60 4 28 -4 50 -4 50 -1 0 3 46 7 103 7 89 1 161 6 272 19
81 9 123 15 160 22 22 3 46 6 53 4 6 -1 12 3 12 8 0 5 9 8 20 6 11 -2 22 0 25
4 2 5 16 7 30 6 14 -2 25 1 25 5 0 5 8 9 18 8 9 0 28 3 42 6 14 3 34 8 45 10
18 4 145 42 170 50 6 2 25 7 43 11 17 4 32 10 32 14 0 4 11 8 23 9 13 1 37 8
52 16 16 8 32 13 37 10 4 -3 8 0 8 5 0 6 3 10 8 9 4 0 16 2 27 7 68 27 86 34
93 35 4 1 18 8 32 16 14 8 36 18 50 24 14 5 32 14 40 19 8 5 29 15 45 22 17 7
42 21 56 31 14 10 29 15 33 11 3 -3 6 -1 6 6 0 7 5 9 10 6 6 -3 10 -3 10 2 0
4 26 22 58 38 31 17 64 37 72 45 8 8 22 16 30 18 8 2 24 12 36 23 11 10 25 19
32 19 6 0 15 8 21 17 5 10 12 16 15 13 6 -5 179 119 184 132 2 4 8 8 12 8 5 0
22 12 38 27 42 40 82 74 82 68 0 -11 292 288 349 358 35 42 68 77 73 77 5 0 6
5 3 10 -3 6 1 13 9 16 9 3 16 10 16 16 0 7 51 79 70 98 15 15 90 132 90 140 0
6 4 10 9 10 5 0 13 10 17 22 3 12 12 28 18 35 22 24 31 39 34 53 2 8 9 22 17
30 7 8 16 25 19 38 4 12 11 22 16 22 4 0 11 10 15 23 9 27 2 13 65 141 29 61
53 116 53 123 0 7 4 13 7 13 8 0 40 84 42 108 1 6 5 12 9 12 3 0 9 12 12 28 4
22 44 147 64 202 4 8 7 20 8 25 1 6 3 12 4 15 1 3 5 16 8 30 7 39 11 55 13 55
2 0 7 22 15 60 3 17 8 38 11 48 3 10 7 32 10 50 2 18 6 43 9 57 3 14 8 45 11
70 3 25 8 54 11 65 7 35 15 108 16 167 1 32 4 58 7 58 3 0 5 43 5 95 0 57 4
95 10 95 6 0 3 5 -5 10 -9 6 -10 10 -3 10 8 0 9 9 3 30 -5 19 -5 30 1 30 6 0
7 4 4 10 -3 5 -8 47 -10 92 -7 140 -15 240 -20 267 -6 29 -18 119 -18 139 0 6
-3 12 -6 12 -3 0 -7 15 -8 33 -1 35 -6 57 -14 72 -3 6 -4 20 -3 33 0 12 -1 22
-5 22 -3 0 -7 10 -7 23 -2 21 -11 62 -14 62 -1 0 -3 9 -5 20 -2 11 -12 50 -23
88 -12 37 -21 68 -21 70 0 4 -12 40 -24 72 -7 17 -12 33 -13 38 -1 4 -3 9 -4
12 -1 3 -3 9 -4 14 0 5 -4 13 -8 17 -5 4 -8 14 -8 22 0 8 -7 30 -16 50 -9 21
-22 50 -29 67 -8 16 -11 33 -9 37 3 4 1 8 -4 8 -5 0 -12 9 -15 20 -3 11 -6 24
-7 28 -1 4 -15 30 -31 58 -15 28 -25 54 -22 58 4 3 2 6 -4 6 -5 0 -18 19 -29
43 -10 23 -23 45 -29 49 -5 4 -6 8 -1 8 5 0 2 7 -5 16 -15 19 -23 32 -64 108
-16 31 -33 56 -37 56 -4 0 -8 7 -8 15 0 8 -4 15 -10 15 -5 0 -10 5 -10 10 0
11 -34 63 -57 88 -7 7 -13 17 -13 21 0 4 -8 16 -17 27 -10 11 -29 35 -43 54
-30 43 -39 55 -68 85 -13 14 -21 25 -18 25 3 0 -7 13 -22 29 -15 15 -56 61
-92 101 -86 96 -170 180 -182 180 -5 0 -6 5 -3 10 3 6 1 10 -5 10 -6 0 -23 12
-39 28 -47 46 -111 102 -111 96 0 -3 -10 5 -23 18 -13 13 -36 32 -51 43 -42
31 -139 104 -153 115 -7 6 -13 8 -13 5 0 -5 -29 17 -56 43 -8 7 -14 10 -14 7
0 -4 -15 3 -32 17 -18 13 -50 32 -70 43 -21 11 -38 23 -38 28 0 4 -4 5 -10 2
-5 -3 -10 -2 -10 3 0 4 -16 14 -35 22 -19 8 -35 17 -35 22 0 4 -3 7 -7 6 -5
-1 -54 21 -110 49 -57 29 -113 55 -125 58 -13 4 -32 15 -42 24 -12 10 -16 11
-11 2 5 -9 -1 -8 -18 4 -14 9 -32 18 -39 19 -7 2 -26 9 -43 15 -16 7 -34 14
-40 15 -5 2 -23 9 -40 16 -16 7 -34 14 -40 14 -5 1 -30 8 -55 16 -25 7 -48 13
-52 12 -5 -1 -8 3 -8 10 0 6 -3 9 -6 6 -3 -4 -34 2 -70 12 -35 10 -67 19 -69
19 -3 1 -6 1 -7 2 -10 3 -46 11 -63 13 -11 2 -20 4 -20 6 0 1 -15 3 -33 5 -19
2 -46 8 -60 13 -15 5 -37 8 -49 7 -13 -1 -23 1 -23 4 0 3 -10 7 -22 8 -65 4
-105 10 -113 15 -14 9 -805 9 -805 0z"/>
</g>
</svg>
